<svg width="28" height="24" viewBox="0 0 28 24" fill="none" xmlns="http://www.w3.org/2000/svg">
<path d="M27.713 4.71212L23.938 8.47512C23.188 17.2121 15.813 24.0001 6.99997 24.0001C5.18797 24.0001 3.68797 23.7121 2.54997 23.1501C1.63797 22.6871 1.26297 22.2001 1.16297 22.0501C0.994973 21.7951 0.952973 21.4781 1.04697 21.1891C1.14197 20.8991 1.36397 20.6681 1.64997 20.5621C1.67497 20.5501 4.62497 19.4251 6.53797 17.2621C5.35097 16.4181 4.30897 15.3881 3.44997 14.2121C1.73797 11.8871 -0.0750268 7.85012 1.01297 1.82512C1.08197 1.46012 1.34597 1.16312 1.69997 1.05012C2.05497 0.934118 2.44597 1.02512 2.71297 1.28712C2.74997 1.33712 6.91297 5.43712 12 6.76212V6.00012C12.01 4.39912 12.656 2.86712 13.795 1.74212C14.934 0.617118 16.474 -0.00988219 18.075 0.000117807C20.192 0.0301178 22.137 1.16912 23.2 3.00012H27C27.404 2.99912 27.769 3.24012 27.925 3.61212C28.072 3.98912 27.989 4.41712 27.713 4.71212Z" fill="black"/>
</svg>
