<svg width="116" height="86" viewBox="0 0 116 86" fill="none" xmlns="http://www.w3.org/2000/svg">
<path d="M5.30469 58.9254C5.30469 51.2944 10.3034 43.1114 13.6663 36.4826C16.3322 31.2266 19.3879 26.1587 22.3082 21.04C24.7888 16.6931 26.5946 11.7347 29.6503 7.744C30.2733 6.92992 32.105 4.18912 32.3546 6.44224C33.2791 14.7702 32.6167 23.6445 32.4602 32.0157C32.1837 46.8592 30.6765 61.8688 29.3344 76.6538M57.7888 14.6032C49.2957 16.0202 46.5117 26.9603 45.4231 33.8099C44.2375 41.2701 43.3293 49.9014 47.0388 56.7443C48.8148 60.0208 54.4528 63.1802 58.1047 61.7747C64.0212 59.4947 69.9453 51.5824 72.016 45.593C75.2522 36.231 76.3879 27.5939 69.8023 19.3514C66.0928 14.7078 62.226 15.8694 57.1562 15.8694M91.1364 14.5782C87.3559 19.5338 83.9498 26.1136 82.7354 31.9437C81.472 38.0099 79.7863 46.7958 83.1943 52.6384C84.3492 54.6179 86.0004 58.1037 88.913 58.6586C91.8429 59.2163 97.2045 55.2314 99.6784 53.8173C102.144 52.409 103.285 50.0147 105.114 48.0995C106.664 46.4762 107.224 43.5549 107.938 41.5638C109.193 38.0694 109.562 33.9741 109.562 30.3107C109.562 27.04 109.153 21.9462 106.667 19.2083C103.634 15.8646 94.0308 13.8323 89.8653 16.2122M59.0532 72.855C64.9533 69.9011 71.1655 68.2845 77.7079 67.5078C88.5088 66.2243 100.491 65.5792 110.905 69.0554M71.0685 80.4525C76.0778 79.8957 81.1092 77.3699 86.2442 76.6538C91.8756 75.8685 97.6298 75.3875 103.318 75.3875" stroke="#355070" stroke-width="10" stroke-miterlimit="10" stroke-linecap="round"/>
</svg>
