<svg width="86" height="92" viewBox="0 0 86 92" fill="none" xmlns="http://www.w3.org/2000/svg">
<path d="M29.5293 44.5428C29.5293 45.1693 29.3463 46.2411 30.2819 46.2411C30.9149 46.2411 31.8569 45.4057 31.8937 44.7553C31.9324 44.0717 31.7925 43.2695 30.9259 43.2695C30.4585 43.2695 29.3058 43.0735 29.0997 43.482M51.2395 42.6328C51.2395 44.0064 51.0583 44.9614 52.8394 44.4959C54.1209 44.161 55.753 43.1398 55.753 41.6779C55.753 39.9695 54.2957 40.0863 52.959 40.0863C51.6682 40.0863 52.0988 41.6577 52.0988 42.6328M18.9963 56.8533C22.8308 60.295 26.3231 63.9171 31.2727 65.838C34.5249 67.1003 38.1957 66.8289 41.6145 66.8289C45.5935 66.8289 48.9193 65.6927 52.338 63.6917C58.6041 60.0236 65.3017 54.7787 68.9127 48.3875C70.4555 45.6569 70.8465 43.0413 71.4445 40.0863M33.0677 26.2118C25.8815 26.2118 21.4306 27.555 16.0716 32.8146C9.90942 38.8645 6.6701 46.2742 5.69858 54.6481C4.77214 62.641 4.96258 69.8796 10.7144 75.9985C19.8151 85.6778 35.3741 87.8205 48.0664 86.6493C59.1616 85.6263 70.4988 78.8615 75.7759 68.8897C81.7863 57.5332 82.1901 41.9751 77.6757 30.1163C75.1834 23.5705 70.8162 17.9631 65.5004 13.3916C59.6805 8.38586 52.5385 6.61026 45.0231 5.68014C34.7789 4.4133 23.8318 4.77762 14.6594 9.72906" stroke="#355070" stroke-width="10" stroke-miterlimit="10" stroke-linecap="round"/>
</svg>
