<svg width="26" height="26" viewBox="0 0 26 26" fill="none" xmlns="http://www.w3.org/2000/svg">
<path d="M25.9999 13C25.9919 19.575 21.0829 25.112 14.5559 25.907C14.4139 25.924 14.2719 25.878 14.1659 25.783C14.0589 25.687 13.9989 25.55 13.9999 25.407V16H16.9999C17.2769 16.001 17.5419 15.886 17.7319 15.684C17.9209 15.482 18.0179 15.21 17.9999 14.934C17.9539 14.4 17.5039 13.993 16.9689 14H13.9999V11C13.9999 9.895 14.8949 9 15.9999 9H17.9999C18.2769 9.001 18.5419 8.886 18.7319 8.684C18.9209 8.482 19.0179 8.21 18.9999 7.934C18.9539 7.399 18.5029 6.991 17.9659 7H15.9999C13.7909 7 11.9999 8.791 11.9999 11V14H8.99994C8.72294 13.999 8.45794 14.114 8.26794 14.316C8.07894 14.518 7.98194 14.79 7.99994 15.066C8.04594 15.601 8.49694 16.009 9.03394 16H11.9999V25.41C12.0009 25.553 11.9409 25.689 11.8349 25.785C11.7289 25.88 11.5869 25.926 11.4449 25.91C4.73094 25.092 -0.238059 19.27 0.00894108 12.511C0.258941 5.761 5.72594 0.274002 12.4809 0.0110015C16.0149 -0.125998 19.4519 1.181 22.0019 3.631C24.5519 6.081 25.9959 9.464 25.9999 13Z" fill="black"/>
</svg>
