<svg width="86" height="53" viewBox="0 0 86 53" fill="none" xmlns="http://www.w3.org/2000/svg">
<path d="M78.9864 15.4543C75.4479 12.7644 70.5183 11.6293 68.8079 7.37061M57.5727 44.2535C55.9541 43.0399 53.6978 42.3616 51.9083 41.4006C50.4599 40.6226 48.8439 39.3917 47.6144 38.2978C46.829 37.6002 45.8361 36.0288 45.4611 35.0951M42.7991 44.9597C43.1529 44.9597 43.4069 45.2457 43.75 45.3534C44.6139 45.6261 45.2436 45.9739 46.025 46.4081C46.2318 46.5231 47.5246 47.3258 47.1316 47.5812C46.1913 48.1923 44.7662 48.1165 43.7108 48.3526C42.6129 48.5999 43.2952 47.0764 43.5007 46.6601M82.4105 7.30078C83.1865 8.16262 83.3814 8.93602 83.3993 10.01C83.4605 13.6615 80.0038 16.6726 77.8991 19.0892C75.0376 22.3743 73.1224 26.4022 70.2689 29.6787C67.0437 33.3808 63.9953 37.2471 60.7634 40.9564C59.5777 42.3183 58.2284 43.5007 57.0454 44.8587C56.5466 45.4312 55.6429 46.3675 54.8216 46.4759C52.1011 46.837 49.7271 48.5055 46.9706 48.8999C45.8408 49.0615 42.954 49.8089 42.5437 48.1451C42.3236 47.2513 42.6428 46.2385 42.434 45.3428C42.3396 44.9351 42.3841 43.6051 42.5078 43.244C42.9387 41.9878 42.7439 40.3918 43.0631 39.0279C43.4209 37.4964 44.3106 36.7151 45.1366 35.4476C46.4799 33.3861 47.9136 31.3552 49.3181 29.2843C50.541 27.4809 51.7194 25.7146 53.1525 24.0701C54.7425 22.244 55.9654 20.1087 57.5495 18.2899C60.1915 15.2575 63.0503 12.5556 65.8972 9.72272C67.3648 8.26437 69.1457 7.1751 70.4917 5.62964C71.7778 4.15334 73.0233 2.96964 75.3329 3.57013C76.6935 3.92325 77.7954 4.38875 79.1234 4.87154C80.192 5.2599 81.2374 6.52872 82.1079 7.30278M2.935 47.2048C4.56292 46.1654 6.14628 44.733 7.96705 44.0573C9.68674 43.4189 11.7044 43.1223 13.5238 43.4302C15.7369 43.8066 17.1647 45.1699 18.5851 46.8144C19.0952 47.4043 19.6385 47.9562 20.1864 48.5102C20.6287 48.9571 21.1055 49.5901 21.6887 49.8628C22.1768 50.0902 22.6948 49.5163 23.0619 49.2709C24.3227 48.427 25.6507 47.7547 27.1337 47.4182C28.7829 47.0445 30.3909 46.982 31.8253 48.0234C32.6798 48.6432 33.511 49.3388 34.4254 49.8668C34.9913 50.1939 36.1278 49.5841 36.6372 49.2403" stroke="white" stroke-width="5" stroke-miterlimit="10" stroke-linecap="round"/>
</svg>
